<svg width="16" height="10" viewBox="0 0 16 10" fill="none" xmlns="http://www.w3.org/2000/svg">
<path d="M15.6834 2.10493L8.59103 9.75044C8.5066 9.84119 8.41513 9.90532 8.31662 9.94283C8.21812 9.98094 8.11258 10 8 10C7.88742 10 7.78188 9.98094 7.68338 9.94283C7.58487 9.90532 7.4934 9.84119 7.40897 9.75044L0.295514 2.10493C0.0985044 1.89318 -3.6593e-07 1.6285 -3.79813e-07 1.31088C-3.93697e-07 0.993265 0.10554 0.721022 0.316622 0.494152C0.527704 0.267282 0.773966 0.153847 1.05541 0.153847C1.33685 0.153847 1.58311 0.267281 1.79419 0.494152L8 7.16413L14.2058 0.494151C14.4028 0.282406 14.6454 0.176533 14.9336 0.176533C15.2224 0.176533 15.4723 0.289968 15.6834 0.516837C15.8945 0.743708 16 1.00839 16 1.31088C16 1.61338 15.8945 1.87806 15.6834 2.10493Z" fill="white"/>
</svg>
