<svg width="30" height="30" viewBox="0 0 30 30" fill="none" xmlns="http://www.w3.org/2000/svg">
<path d="M3.70711 29.2929C3.31658 29.6834 2.68342 29.6834 2.29289 29.2929L0.707107 27.7071C0.316583 27.3166 0.316583 26.6834 0.707107 26.2929L11.2929 15.7071C11.6834 15.3166 11.6834 14.6834 11.2929 14.2929L0.707107 3.70711C0.316583 3.31658 0.316582 2.68342 0.707107 2.29289L2.29289 0.707107C2.68342 0.316583 3.31658 0.316583 3.70711 0.707107L14.2929 11.2929C14.6834 11.6834 15.3166 11.6834 15.7071 11.2929L26.2929 0.707107C26.6834 0.316583 27.3166 0.316583 27.7071 0.707107L29.2929 2.29289C29.6834 2.68342 29.6834 3.31658 29.2929 3.70711L18.7071 14.2929C18.3166 14.6834 18.3166 15.3166 18.7071 15.7071L29.2929 26.2929C29.6834 26.6834 29.6834 27.3166 29.2929 27.7071L27.7071 29.2929C27.3166 29.6834 26.6834 29.6834 26.2929 29.2929L15.7071 18.7071C15.3166 18.3166 14.6834 18.3166 14.2929 18.7071L3.70711 29.2929Z" fill="white"/>
</svg>
