<svg width="120" height="120" viewBox="0 0 120 120" fill="none" xmlns="http://www.w3.org/2000/svg">
<rect width="120" height="120" rx="6" fill="#3498A2"/>
<path d="M106 43.6936C106 32.7118 96.979 21 85.8468 21H34.158C13.156 21 14.0047 42.2122 14.0047 42.2122C14.0047 46.9785 14.0048 66.0545 37.3899 66.3765H53.593V86.2576H37.3899C31.8184 86.2576 27.3133 81.8026 27.3133 76.3171H14.0047V79.1189C14.0047 90.1007 23.0258 99 34.158 99H85.8468C96.979 99 106 92.1189 106 78.9579C106 62.6515 90.6131 60.6334 89.0787 60.5689C89.0787 60.5689 89.0787 59.839 89.0787 59.431C106 59.6994 106 43.6936 106 43.6936ZM53.593 53.6342H37.3899C31.8184 53.6342 27.3133 49.1792 27.3133 43.6936C27.3133 38.1974 31.8293 33.7531 37.3899 33.7531H53.593V53.6342ZM93.1921 76.3171C93.1921 81.8134 88.6761 86.2576 83.1154 86.2576H66.9123V66.3765H83.1154C88.687 66.3765 93.1921 70.8315 93.1921 76.3171ZM93.1921 43.6936C93.1921 49.1899 88.6761 53.6342 83.1154 53.6342H66.9123V33.7531H83.1154C88.687 33.7424 93.1921 38.1974 93.1921 43.6936Z" fill="white"/>
</svg>
