<svg width="46" height="39" viewBox="0 0 46 39" fill="#000" xmlns="http://www.w3.org/2000/svg">
<path d="M46 11.3468C46 5.8559 41.4895 0 35.9234 0H10.079C-0.422008 0 0.00237332 10.6061 0.00237332 10.6061C0.00237332 12.9893 0.00238481 22.5272 11.6949 22.6883H19.7965V32.6288H11.6949C8.90919 32.6288 6.65664 30.4013 6.65664 27.6585H0.00237332V29.0594C0.00237332 34.5504 4.51292 39 10.079 39H35.9234C41.4895 39 46 35.5594 46 28.9789C46 20.8258 38.3065 19.8167 37.5394 19.7845C37.5394 19.7845 37.5394 19.4195 37.5394 19.2155C46 19.3497 46 11.3468 46 11.3468ZM19.7965 16.3171H11.6949C8.90919 16.3171 6.65664 14.0896 6.65664 11.3468C6.65664 8.59868 8.91463 6.37655 11.6949 6.37655H19.7965V16.3171ZM39.596 27.6585C39.596 30.4067 37.338 32.6288 34.5577 32.6288H26.4562V22.6883H34.5577C37.3435 22.6883 39.596 24.9158 39.596 27.6585ZM39.596 11.3468C39.596 14.095 37.338 16.3171 34.5577 16.3171H26.4562V6.37655H34.5577C37.3435 6.37118 39.596 8.59868 39.596 11.3468Z" fill="white"/>
</svg>
